<svg id="svg" version="1.1" xmlns="http://www.w3.org/2000/svg" xmlns:xlink="http://www.w3.org/1999/xlink" width="400" height="400" viewBox="0, 0, 400,400"><g id="svgg"><path id="path0" d="M171.400 56.134 C 168.980 56.610,166.424 57.315,165.720 57.700 C 165.016 58.085,164.097 58.400,163.678 58.400 C 163.259 58.400,162.446 58.836,161.871 59.369 C 161.296 59.902,160.415 60.468,159.913 60.626 C 159.411 60.785,158.765 61.249,158.477 61.657 C 158.190 62.066,157.772 62.400,157.548 62.400 C 157.204 62.400,154.628 64.973,151.699 68.243 C 151.284 68.706,150.704 69.696,150.410 70.443 C 150.117 71.189,149.649 71.989,149.371 72.220 C 149.094 72.451,148.741 73.307,148.588 74.123 C 148.435 74.939,147.947 76.067,147.505 76.630 C 145.648 78.991,145.648 97.009,147.505 99.370 C 147.947 99.933,148.429 101.030,148.575 101.809 C 148.721 102.588,149.282 103.874,149.820 104.668 C 150.359 105.462,150.800 106.293,150.800 106.514 C 150.800 106.978,151.150 107.367,155.816 112.100 C 157.713 114.025,159.417 115.600,159.601 115.600 C 160.026 115.600,165.613 118.385,166.354 118.966 C 168.496 120.645,184.996 120.666,187.990 118.993 C 188.545 118.683,189.630 118.148,190.400 117.805 C 191.170 117.461,192.070 117.001,192.400 116.782 C 192.730 116.563,193.608 116.105,194.352 115.765 C 195.899 115.057,203.600 107.465,203.600 106.648 C 203.600 106.351,203.934 105.679,204.342 105.154 C 204.750 104.629,205.318 103.480,205.605 102.600 C 205.892 101.720,206.443 100.550,206.830 100.000 C 209.693 95.929,208.781 79.945,205.277 72.812 C 202.740 67.647,196.289 60.400,194.228 60.400 C 193.951 60.400,193.423 60.068,193.056 59.661 C 192.688 59.255,191.625 58.697,190.694 58.422 C 189.762 58.146,188.730 57.696,188.400 57.421 C 187.766 56.892,180.643 55.538,177.600 55.369 C 176.610 55.313,173.820 55.658,171.400 56.134 M101.800 82.669 C 101.140 82.778,100.323 83.116,99.984 83.420 C 99.645 83.724,98.385 84.179,97.184 84.431 C 95.983 84.684,94.730 85.114,94.400 85.388 C 94.070 85.662,93.218 86.082,92.508 86.320 C 90.683 86.932,86.260 90.612,83.200 94.065 C 81.770 95.679,80.105 97.477,79.500 98.060 C 78.895 98.644,78.400 99.317,78.400 99.557 C 78.400 99.797,78.040 100.218,77.600 100.493 C 77.160 100.768,76.800 101.215,76.800 101.487 C 76.800 101.759,76.350 102.276,75.800 102.637 C 75.250 102.997,74.800 103.456,74.800 103.656 C 74.800 103.856,74.170 104.935,73.400 106.055 C 72.630 107.174,72.000 108.250,72.000 108.445 C 72.000 108.640,71.730 108.800,71.400 108.800 C 71.070 108.800,70.800 109.133,70.800 109.540 C 70.800 109.947,70.263 111.072,69.607 112.040 C 68.951 113.008,68.411 113.954,68.407 114.142 C 68.403 114.330,67.950 115.019,67.400 115.673 C 66.850 116.327,66.400 117.183,66.400 117.577 C 66.400 117.970,66.069 118.721,65.664 119.246 C 65.259 119.771,64.717 120.818,64.459 121.574 C 64.201 122.330,63.743 123.230,63.442 123.574 C 63.140 123.918,62.597 125.235,62.235 126.500 C 61.874 127.765,61.423 128.800,61.234 128.800 C 61.045 128.800,60.771 129.597,60.625 130.572 C 60.479 131.546,60.023 132.772,59.611 133.295 C 59.200 133.818,58.654 135.398,58.399 136.806 C 58.144 138.214,57.707 139.824,57.428 140.383 C 57.150 140.942,56.719 142.886,56.470 144.701 C 56.222 146.517,55.710 148.587,55.332 149.301 C 54.112 151.607,53.940 210.510,55.142 214.328 C 55.372 215.059,55.859 218.029,56.223 220.928 C 56.588 223.828,57.120 226.470,57.406 226.800 C 57.692 227.130,58.140 228.210,58.403 229.200 C 58.665 230.190,59.134 231.270,59.445 231.600 C 60.361 232.572,62.800 236.345,62.800 236.790 C 62.800 237.016,63.074 237.200,63.409 237.200 C 63.743 237.200,64.222 237.650,64.473 238.200 C 64.723 238.750,65.055 239.200,65.209 239.200 C 65.364 239.200,66.190 239.756,67.045 240.435 C 67.900 241.115,69.050 242.013,69.600 242.431 C 71.207 243.653,75.206 245.599,76.141 245.613 C 76.613 245.619,77.900 246.068,79.000 246.609 L 81.000 247.593 124.600 247.602 C 158.939 247.610,168.412 247.719,169.200 248.118 L 170.200 248.623 170.400 290.222 L 170.600 331.820 171.500 332.964 C 171.995 333.593,172.400 334.329,172.400 334.599 C 172.400 334.869,172.940 335.769,173.600 336.600 C 174.260 337.431,174.800 338.355,174.800 338.655 C 174.800 338.955,174.955 339.200,175.145 339.200 C 175.335 339.200,176.139 339.695,176.933 340.300 C 181.465 343.756,181.608 343.800,188.223 343.800 C 193.336 343.800,194.393 343.694,195.223 343.096 C 195.760 342.708,196.906 341.921,197.769 341.347 C 199.966 339.885,203.027 336.602,203.612 335.079 C 203.883 334.376,204.441 333.068,204.852 332.174 C 205.571 330.611,205.600 328.423,205.600 275.812 L 205.600 221.077 204.400 218.538 C 203.740 217.141,203.200 215.902,203.200 215.786 C 203.200 215.331,200.433 212.837,199.249 212.225 C 198.562 211.870,198.000 211.425,198.000 211.236 C 198.000 210.378,194.465 210.237,167.600 210.026 C 126.570 209.702,130.400 213.082,130.400 177.192 C 130.400 152.743,130.438 152.250,132.403 151.198 C 133.408 150.661,136.155 152.976,136.597 154.734 C 136.727 155.248,137.176 156.037,137.596 156.488 C 138.016 156.939,138.473 157.824,138.612 158.454 C 138.750 159.084,139.032 159.600,139.238 159.600 C 139.444 159.600,139.925 160.269,140.306 161.088 C 140.688 161.906,141.315 162.896,141.700 163.288 C 142.085 163.679,142.400 164.245,142.400 164.545 C 142.400 164.845,142.940 165.769,143.600 166.600 C 144.260 167.431,144.800 168.346,144.800 168.635 C 144.800 168.924,145.029 169.304,145.310 169.480 C 145.590 169.656,146.134 170.295,146.519 170.900 C 146.904 171.505,147.490 172.000,147.822 172.000 C 148.154 172.000,148.526 172.263,148.650 172.585 C 148.773 172.906,149.262 173.287,149.737 173.431 C 150.212 173.575,151.173 174.122,151.873 174.646 L 153.147 175.600 185.073 175.593 L 217.000 175.585 218.800 174.408 C 219.790 173.761,220.960 172.946,221.400 172.596 C 221.840 172.247,222.422 171.826,222.694 171.661 C 224.805 170.377,226.532 161.285,225.214 158.400 C 224.163 156.101,223.325 154.875,222.050 153.770 C 221.308 153.127,220.262 152.193,219.727 151.695 C 218.118 150.199,214.808 150.016,189.151 150.008 L 164.902 150.000 163.351 148.292 C 162.498 147.352,161.170 145.331,160.400 143.800 C 159.630 142.269,158.790 140.833,158.532 140.608 C 158.275 140.384,157.417 138.965,156.626 137.455 C 155.835 135.946,154.827 134.252,154.385 133.690 C 153.944 133.129,153.477 132.249,153.348 131.735 C 153.219 131.221,152.975 130.800,152.806 130.800 C 152.637 130.800,152.111 129.900,151.638 128.800 C 151.165 127.700,150.620 126.800,150.428 126.800 C 150.236 126.800,149.868 126.305,149.611 125.700 C 148.871 123.956,147.290 121.163,146.633 120.436 C 146.302 120.070,145.738 119.147,145.381 118.385 C 144.579 116.676,143.612 114.954,142.624 113.472 C 141.634 111.988,140.635 110.190,139.639 108.100 C 139.193 107.165,138.687 106.398,138.514 106.397 C 138.341 106.395,137.572 105.180,136.803 103.697 C 136.035 102.213,135.000 100.491,134.503 99.869 C 134.006 99.247,133.490 98.302,133.357 97.769 C 133.223 97.236,132.947 96.800,132.744 96.800 C 132.541 96.800,132.262 96.485,132.124 96.100 C 131.773 95.121,127.763 90.879,125.602 89.200 C 124.611 88.430,123.620 87.595,123.400 87.344 C 123.180 87.093,122.339 86.679,121.532 86.424 C 120.725 86.168,119.859 85.712,119.609 85.411 C 119.359 85.109,118.399 84.741,117.477 84.593 C 116.555 84.445,115.170 83.955,114.400 83.503 C 112.983 82.672,104.983 82.143,101.800 82.669 M340.294 91.372 C 339.919 92.157,339.446 92.800,339.242 92.800 C 339.037 92.800,338.747 93.565,338.597 94.500 C 338.447 95.435,338.000 96.763,337.605 97.451 C 337.209 98.138,336.764 99.255,336.615 99.932 C 336.466 100.609,336.026 101.576,335.636 102.081 C 335.246 102.587,334.705 103.900,334.433 105.000 C 334.162 106.100,333.706 107.270,333.421 107.600 C 333.135 107.930,332.784 108.857,332.640 109.659 C 332.497 110.462,332.047 111.542,331.642 112.059 C 331.236 112.577,330.773 113.630,330.613 114.400 C 330.453 115.170,329.999 116.363,329.604 117.051 C 329.209 117.738,328.757 118.908,328.599 119.651 C 328.442 120.393,327.988 121.360,327.589 121.800 C 327.191 122.240,326.740 123.320,326.588 124.200 C 326.436 125.080,325.991 126.363,325.598 127.051 C 325.206 127.738,324.764 128.855,324.615 129.532 C 324.466 130.209,324.023 131.176,323.631 131.681 C 323.238 132.187,322.694 133.536,322.423 134.680 C 322.152 135.824,321.690 136.960,321.396 137.203 C 321.103 137.447,320.739 138.375,320.589 139.265 C 320.438 140.156,319.968 141.232,319.543 141.657 C 319.118 142.082,318.625 143.188,318.448 144.115 C 318.271 145.042,317.738 146.517,317.263 147.394 C 316.788 148.271,316.400 149.282,316.400 149.640 C 316.400 149.999,316.046 150.742,315.614 151.291 C 315.182 151.841,314.631 153.167,314.391 154.239 C 314.151 155.310,313.710 156.460,313.411 156.794 C 313.112 157.127,312.744 158.065,312.594 158.877 C 312.443 159.689,311.888 160.939,311.360 161.654 C 310.832 162.370,310.400 163.357,310.400 163.849 C 310.400 166.509,311.928 166.399,274.846 166.405 C 236.607 166.412,239.600 166.191,239.600 169.004 C 239.600 171.830,236.304 171.600,276.753 171.600 C 314.614 171.600,313.600 171.650,313.600 169.798 C 313.600 169.334,314.050 168.345,314.600 167.600 C 315.150 166.855,315.602 165.875,315.604 165.422 C 315.606 164.970,316.050 163.700,316.591 162.600 C 317.132 161.500,317.581 160.346,317.587 160.035 C 317.594 159.724,318.028 158.734,318.552 157.835 C 319.075 156.936,319.639 155.570,319.805 154.800 C 319.971 154.030,320.443 152.773,320.853 152.006 C 321.264 151.239,321.600 150.329,321.600 149.984 C 321.600 149.638,322.028 148.776,322.551 148.067 C 323.073 147.358,323.609 146.108,323.741 145.289 C 323.873 144.470,324.345 143.087,324.790 142.215 C 325.236 141.344,325.600 140.344,325.600 139.993 C 325.600 139.642,326.050 138.745,326.600 138.000 C 327.150 137.255,327.602 136.275,327.604 135.822 C 327.606 135.370,328.050 134.100,328.591 133.000 C 329.132 131.900,329.582 130.730,329.590 130.400 C 329.598 130.070,330.048 129.080,330.590 128.200 C 331.132 127.320,331.582 126.240,331.591 125.800 C 331.600 125.360,332.050 124.100,332.591 123.000 C 333.132 121.900,333.581 120.746,333.587 120.435 C 333.594 120.124,334.028 119.134,334.552 118.235 C 335.075 117.336,335.625 116.033,335.775 115.339 C 335.924 114.646,336.396 113.392,336.823 112.554 C 337.250 111.716,337.600 110.744,337.600 110.393 C 337.600 110.042,338.050 109.145,338.600 108.400 C 339.150 107.655,339.600 106.668,339.600 106.207 C 339.600 105.746,339.964 104.656,340.410 103.785 C 340.855 102.913,341.413 101.486,341.648 100.614 C 341.884 99.742,342.420 98.593,342.839 98.060 C 343.257 97.528,343.600 96.704,343.600 96.231 C 343.600 95.757,343.960 94.663,344.400 93.800 C 345.776 91.101,345.585 90.758,342.387 90.193 C 341.068 89.960,340.930 90.038,340.294 91.372 " stroke="none" fill="#f9f9fa" fill-rule="evenodd"></path><path id="path1" d="M0.000 200.000 L 0.000 400.000 200.000 400.000 L 400.000 400.000 400.000 200.000 L 400.000 0.000 200.000 0.000 L 0.000 0.000 0.000 200.000 M184.659 54.463 C 185.067 54.828,186.449 55.256,187.731 55.413 C 189.126 55.585,190.331 55.982,190.731 56.403 C 191.099 56.790,191.997 57.235,192.727 57.391 C 193.457 57.547,194.154 57.935,194.276 58.253 C 194.397 58.570,195.060 59.075,195.749 59.374 C 198.335 60.499,204.800 66.852,204.800 68.268 C 204.800 68.541,205.250 69.214,205.800 69.764 C 206.361 70.324,206.800 71.227,206.800 71.818 C 206.800 72.406,207.171 73.172,207.640 73.552 C 208.208 74.012,208.551 74.872,208.702 76.216 C 208.825 77.307,209.293 78.697,209.741 79.305 C 211.286 81.396,210.809 97.600,209.202 97.600 C 209.037 97.600,208.812 98.534,208.702 99.675 C 208.561 101.145,208.255 101.950,207.652 102.439 C 207.173 102.826,206.800 103.590,206.800 104.182 C 206.800 104.773,206.361 105.676,205.800 106.236 C 205.250 106.786,204.800 107.459,204.800 107.732 C 204.800 109.139,197.036 116.800,195.610 116.800 C 195.270 116.800,194.773 117.151,194.505 117.580 C 194.237 118.009,193.346 118.486,192.524 118.641 C 191.703 118.795,190.754 119.259,190.415 119.673 C 190.077 120.086,189.080 120.533,188.200 120.666 C 187.320 120.799,186.295 121.173,185.922 121.496 C 183.944 123.212,168.400 122.952,168.400 121.203 C 168.400 121.039,167.552 120.808,166.516 120.692 C 165.324 120.557,164.400 120.193,164.001 119.700 C 163.654 119.272,162.697 118.795,161.876 118.641 C 161.054 118.486,160.163 118.009,159.895 117.580 C 159.627 117.151,159.095 116.800,158.713 116.800 C 158.331 116.800,157.724 116.350,157.363 115.800 C 157.003 115.250,156.494 114.800,156.233 114.800 C 155.449 114.800,151.200 110.373,151.200 109.557 C 151.200 109.141,150.926 108.800,150.591 108.800 C 150.257 108.800,149.764 108.305,149.496 107.700 C 149.229 107.095,148.772 106.415,148.482 106.189 C 148.192 105.963,147.779 104.993,147.563 104.034 C 147.347 103.074,146.827 101.852,146.406 101.317 C 145.985 100.782,145.522 99.501,145.377 98.472 C 145.232 97.442,144.818 96.150,144.457 95.600 C 143.489 94.126,143.489 81.874,144.457 80.400 C 144.818 79.850,145.232 78.558,145.377 77.528 C 145.522 76.499,145.968 75.239,146.368 74.728 C 146.768 74.218,147.229 73.170,147.391 72.400 C 147.553 71.630,148.006 70.640,148.397 70.200 C 148.788 69.760,149.228 69.004,149.374 68.520 C 149.521 68.037,149.992 67.530,150.420 67.394 C 150.849 67.257,151.200 66.854,151.200 66.497 C 151.200 65.756,157.500 59.600,158.259 59.600 C 158.534 59.600,159.249 59.146,159.848 58.590 C 160.447 58.035,161.402 57.468,161.969 57.329 C 162.536 57.191,163.408 56.762,163.908 56.376 C 164.407 55.989,165.742 55.546,166.875 55.390 C 168.008 55.234,169.489 54.761,170.167 54.340 C 171.866 53.283,183.451 53.382,184.659 54.463 M112.884 81.422 C 114.582 81.573,115.911 81.930,116.500 82.393 C 117.013 82.796,118.274 83.252,119.303 83.406 C 120.332 83.561,121.391 83.948,121.655 84.267 C 121.920 84.585,122.736 85.097,123.468 85.403 C 124.201 85.709,124.800 86.146,124.800 86.374 C 124.800 86.602,125.385 87.042,126.100 87.352 C 126.815 87.661,128.068 88.609,128.884 89.457 C 129.700 90.306,130.915 91.571,131.584 92.269 C 132.253 92.967,132.800 93.661,132.800 93.811 C 132.800 93.962,133.250 94.619,133.800 95.273 C 134.350 95.927,134.803 96.673,134.807 96.931 C 134.811 97.189,135.261 97.824,135.807 98.342 C 136.353 98.860,136.800 99.617,136.800 100.024 C 136.800 100.431,137.250 101.214,137.800 101.764 C 138.350 102.314,138.800 103.215,138.800 103.768 C 138.800 104.351,139.124 104.945,139.573 105.186 C 139.998 105.413,140.469 106.004,140.619 106.500 C 140.769 106.995,141.218 107.760,141.616 108.200 C 142.015 108.640,142.467 109.510,142.622 110.134 C 142.777 110.757,143.330 111.694,143.852 112.215 C 144.373 112.737,144.800 113.489,144.800 113.886 C 144.800 114.283,145.144 114.822,145.564 115.085 C 145.984 115.347,146.450 116.118,146.600 116.798 C 146.749 117.478,147.305 118.469,147.836 118.999 C 148.366 119.530,148.800 120.171,148.800 120.424 C 148.800 120.677,149.250 121.419,149.800 122.073 C 150.350 122.727,150.800 123.678,150.800 124.188 C 150.800 124.697,151.078 125.221,151.418 125.352 C 151.758 125.482,152.288 126.191,152.595 126.926 C 152.902 127.662,153.417 128.482,153.738 128.748 C 154.059 129.015,154.441 129.708,154.587 130.290 C 154.733 130.871,155.290 131.867,155.826 132.504 C 156.362 133.140,156.800 133.964,156.800 134.334 C 156.800 134.705,157.158 135.231,157.595 135.504 C 158.073 135.802,158.493 136.640,158.646 137.600 C 158.806 138.597,159.117 139.200,159.472 139.200 C 159.785 139.200,160.291 139.799,160.597 140.532 C 160.903 141.264,161.423 142.087,161.751 142.359 C 162.080 142.632,162.463 143.378,162.604 144.017 C 162.744 144.656,163.368 145.723,163.990 146.389 L 165.121 147.600 189.876 147.600 C 213.804 147.600,214.683 147.627,216.193 148.396 C 217.052 148.834,218.355 149.305,219.088 149.443 C 219.822 149.581,220.603 150.032,220.825 150.447 C 221.047 150.861,221.411 151.200,221.634 151.200 C 222.188 151.200,224.800 153.774,224.800 154.321 C 224.800 154.562,225.044 154.904,225.342 155.080 C 226.257 155.621,226.800 157.062,226.800 158.950 C 226.800 159.942,226.997 160.874,227.238 161.023 C 227.496 161.183,227.584 161.889,227.453 162.747 C 227.330 163.546,227.063 165.452,226.858 166.981 C 226.592 168.970,226.258 169.947,225.686 170.411 C 225.246 170.767,224.820 171.405,224.739 171.829 C 224.658 172.253,224.207 172.655,223.737 172.722 C 223.266 172.790,222.791 173.193,222.679 173.618 C 222.568 174.043,222.010 174.568,221.439 174.785 C 220.867 175.002,220.400 175.336,220.400 175.526 C 220.400 176.071,218.490 176.800,217.061 176.800 C 216.346 176.800,215.535 177.025,215.260 177.300 C 214.580 177.981,159.537 178.250,156.809 177.586 C 155.814 177.343,154.010 176.987,152.801 176.794 C 151.374 176.566,150.368 176.153,149.937 175.621 C 149.571 175.169,149.054 174.800,148.789 174.800 C 148.253 174.800,145.514 172.525,145.200 171.819 C 145.090 171.572,144.674 171.016,144.275 170.585 C 142.875 169.071,141.200 166.685,141.200 166.207 C 141.200 165.941,140.840 165.398,140.400 165.000 C 139.960 164.602,139.600 163.969,139.600 163.593 C 139.600 163.217,139.060 162.231,138.400 161.400 C 137.740 160.569,137.200 159.673,137.200 159.407 C 137.200 159.141,136.850 158.607,136.423 158.221 C 135.995 157.834,135.521 156.951,135.369 156.259 C 135.217 155.566,134.757 154.765,134.346 154.477 C 133.936 154.190,133.600 153.695,133.600 153.377 C 133.600 153.060,133.420 152.800,133.200 152.800 C 132.259 152.800,132.698 203.784,133.646 204.638 C 134.111 205.057,134.637 205.780,134.815 206.244 C 135.322 207.570,136.007 207.600,165.950 207.606 C 189.857 207.611,194.354 207.701,195.200 208.190 C 196.586 208.992,196.852 209.101,198.065 209.365 C 198.650 209.493,199.619 210.003,200.219 210.499 C 202.367 212.276,204.800 214.813,204.800 215.277 C 204.800 215.536,205.205 216.180,205.700 216.706 L 206.600 217.664 206.705 275.260 C 206.816 335.985,206.826 335.600,205.154 335.600 C 204.959 335.600,204.800 335.954,204.800 336.386 C 204.800 336.819,204.254 337.764,203.587 338.486 C 202.920 339.209,202.245 339.939,202.087 340.109 C 201.019 341.261,199.141 342.800,198.804 342.800 C 198.582 342.800,198.045 343.155,197.610 343.590 C 197.176 344.024,196.321 344.488,195.710 344.620 C 195.100 344.752,193.945 345.207,193.146 345.630 C 191.004 346.763,184.545 346.744,183.091 345.600 C 182.531 345.160,181.599 344.800,181.019 344.800 C 180.438 344.800,179.537 344.373,179.015 343.852 C 178.494 343.330,177.583 342.782,176.991 342.634 C 176.400 342.485,175.824 342.012,175.711 341.582 C 175.599 341.152,175.262 340.800,174.963 340.800 C 174.663 340.800,174.102 340.305,173.716 339.700 C 173.330 339.095,172.710 338.375,172.339 338.100 C 171.967 337.824,171.537 337.026,171.383 336.325 C 171.229 335.624,170.762 334.769,170.344 334.425 C 168.825 333.176,168.679 329.757,168.426 289.400 C 168.293 268.060,168.032 250.198,167.847 249.707 L 167.510 248.813 122.587 248.707 L 77.664 248.600 76.732 247.751 C 76.209 247.275,75.012 246.804,74.004 246.677 C 72.875 246.534,71.960 246.144,71.540 245.625 C 71.172 245.171,70.536 244.800,70.125 244.800 C 69.448 244.800,68.294 243.974,65.686 241.624 C 65.183 241.171,64.592 240.800,64.373 240.800 C 64.154 240.800,63.857 240.485,63.713 240.100 C 63.569 239.715,62.580 238.541,61.514 237.490 C 60.390 236.382,59.475 235.075,59.335 234.376 C 59.203 233.714,58.779 233.003,58.393 232.796 C 58.008 232.590,57.570 231.936,57.421 231.342 C 57.272 230.749,56.815 229.837,56.405 229.316 C 55.944 228.730,55.555 227.346,55.383 225.684 C 55.231 224.208,54.842 222.699,54.519 222.331 C 53.747 221.452,53.649 220.425,53.179 208.400 C 52.960 202.790,52.599 196.760,52.377 195.000 C 51.678 189.470,51.764 157.676,52.482 155.992 C 52.812 155.217,53.212 152.877,53.371 150.792 C 53.562 148.281,53.907 146.575,54.392 145.742 C 54.826 144.995,55.237 143.205,55.403 141.342 C 55.564 139.527,55.983 137.673,56.397 136.951 C 56.790 136.265,57.241 134.941,57.398 134.009 C 57.556 133.078,58.013 131.987,58.413 131.587 C 58.814 131.186,59.261 129.990,59.407 128.929 C 59.553 127.868,59.993 126.543,60.386 125.984 C 60.778 125.426,61.228 124.383,61.385 123.667 C 61.543 122.951,61.983 122.058,62.363 121.682 C 62.743 121.307,63.277 120.225,63.550 119.279 C 63.822 118.332,64.287 117.465,64.583 117.351 C 64.879 117.238,65.236 116.532,65.377 115.784 C 65.517 115.035,65.959 114.193,66.359 113.911 C 66.758 113.630,67.221 112.950,67.388 112.400 C 67.778 111.111,70.336 107.200,70.790 107.200 C 70.980 107.200,71.250 106.683,71.389 106.050 C 71.528 105.418,72.082 104.486,72.621 103.981 C 73.159 103.475,73.600 102.888,73.600 102.676 C 73.600 102.465,74.005 101.870,74.500 101.356 C 76.127 99.663,76.997 98.638,77.200 98.172 C 77.471 97.549,81.308 93.217,83.982 90.513 C 86.069 88.402,87.974 86.936,90.397 85.572 C 91.011 85.226,91.794 84.663,92.137 84.320 C 92.480 83.977,93.607 83.570,94.642 83.415 C 95.677 83.259,97.005 82.777,97.592 82.343 C 98.413 81.735,99.624 81.486,102.830 81.264 C 107.034 80.972,107.995 80.987,112.884 81.422 M343.646 88.316 C 344.171 88.710,345.116 89.255,345.747 89.529 C 347.182 90.150,347.176 93.953,345.737 95.901 C 345.291 96.506,344.800 97.670,344.647 98.489 C 344.493 99.307,344.044 100.207,343.649 100.489 C 343.208 100.802,342.825 101.766,342.662 102.977 C 342.514 104.065,342.059 105.325,341.650 105.777 C 341.241 106.230,340.797 107.316,340.663 108.190 C 340.530 109.065,340.078 110.055,339.659 110.390 C 339.207 110.752,338.809 111.716,338.679 112.761 C 338.558 113.730,338.086 115.028,337.630 115.645 C 337.173 116.263,336.800 117.211,336.800 117.753 C 336.800 118.295,336.375 119.247,335.856 119.869 C 335.318 120.514,334.790 121.829,334.627 122.929 C 334.471 123.990,334.023 125.177,333.634 125.566 C 333.244 125.956,332.812 126.978,332.675 127.838 C 332.537 128.697,332.089 129.675,331.679 130.010 C 331.233 130.375,330.825 131.412,330.664 132.587 C 330.513 133.690,330.044 134.928,329.597 135.403 C 329.159 135.870,328.800 136.654,328.800 137.146 C 328.800 138.182,327.738 140.400,327.242 140.400 C 327.056 140.400,326.811 141.229,326.696 142.242 C 326.582 143.255,326.139 144.560,325.711 145.142 C 325.283 145.724,324.811 146.821,324.661 147.581 C 324.511 148.340,324.054 149.330,323.646 149.781 C 323.238 150.231,322.784 151.391,322.638 152.358 C 322.492 153.325,322.043 154.585,321.641 155.158 C 321.240 155.731,320.792 156.850,320.648 157.645 C 320.503 158.440,320.050 159.393,319.641 159.763 C 319.217 160.147,318.789 161.260,318.643 162.361 C 318.489 163.519,318.071 164.574,317.594 165.006 C 317.157 165.401,316.800 166.155,316.800 166.682 C 316.800 167.821,315.743 170.000,315.190 170.000 C 314.975 170.000,314.800 170.428,314.800 170.951 C 314.800 173.084,316.378 173.000,276.200 173.000 C 233.539 173.000,237.600 173.423,237.600 168.980 C 237.600 163.934,233.984 164.400,273.126 164.400 C 310.162 164.400,308.957 164.482,309.362 161.947 C 309.496 161.111,309.947 160.105,310.366 159.713 C 310.784 159.321,311.253 158.143,311.409 157.095 C 311.565 156.048,312.005 154.788,312.388 154.295 C 312.771 153.803,313.204 152.750,313.350 151.955 C 313.496 151.160,313.957 150.201,314.375 149.823 C 314.812 149.427,315.246 148.319,315.399 147.209 C 315.544 146.149,315.983 144.940,316.372 144.522 C 316.762 144.104,317.208 143.085,317.363 142.258 C 317.518 141.432,317.982 140.418,318.393 140.007 C 318.805 139.595,319.266 138.433,319.417 137.424 C 319.569 136.416,320.005 135.188,320.388 134.695 C 320.771 134.203,321.208 133.124,321.360 132.298 C 321.512 131.473,321.972 130.483,322.381 130.098 C 322.791 129.714,323.253 128.543,323.409 127.495 C 323.565 126.448,324.008 125.188,324.394 124.695 C 324.780 124.203,325.229 123.170,325.391 122.400 C 325.553 121.630,326.012 120.640,326.411 120.200 C 326.809 119.760,327.260 118.680,327.413 117.800 C 327.565 116.920,327.954 115.780,328.277 115.266 C 328.599 114.752,329.120 113.468,329.433 112.413 C 329.746 111.359,330.263 110.280,330.582 110.015 C 330.900 109.751,331.280 108.737,331.427 107.763 C 331.573 106.788,332.017 105.578,332.413 105.074 C 332.810 104.570,333.257 103.504,333.407 102.705 C 333.557 101.906,334.013 100.950,334.422 100.580 C 334.834 100.207,335.278 99.083,335.418 98.054 C 335.558 97.034,335.986 95.750,336.370 95.200 C 336.754 94.650,337.202 93.660,337.365 93.000 C 338.373 88.916,341.419 86.645,343.646 88.316 " stroke="none" fill="#242c2c" fill-rule="evenodd"></path><path id="path2" d="M176.505 54.287 C 177.114 54.379,178.014 54.377,178.505 54.282 C 178.997 54.187,178.500 54.111,177.400 54.114 C 176.300 54.117,175.897 54.195,176.505 54.287 M180.800 54.790 C 181.570 54.953,182.740 55.204,183.400 55.347 C 184.493 55.584,184.475 55.556,183.200 55.034 C 182.430 54.719,181.260 54.468,180.600 54.476 C 179.433 54.492,179.439 54.500,180.800 54.790 M170.400 55.218 C 169.962 55.515,170.124 55.552,171.000 55.356 C 172.471 55.027,172.790 54.798,171.767 54.806 C 171.345 54.809,170.730 54.995,170.400 55.218 M188.200 56.571 C 191.779 58.179,193.200 58.753,193.200 58.590 C 193.200 58.331,187.980 55.997,187.445 56.016 C 187.200 56.024,187.540 56.274,188.200 56.571 M160.600 59.012 C 159.035 60.295,159.457 60.286,161.200 59.000 C 161.945 58.450,162.385 58.006,162.178 58.014 C 161.970 58.022,161.260 58.471,160.600 59.012 M199.988 64.146 C 201.412 65.606,202.636 66.800,202.708 66.800 C 203.077 66.800,199.716 63.145,198.643 62.379 C 197.959 61.892,198.565 62.687,199.988 64.146 M152.834 65.456 C 151.935 66.477,151.200 67.507,151.200 67.745 C 151.200 67.983,151.497 67.733,151.860 67.189 C 152.224 66.645,153.069 65.615,153.739 64.900 C 154.409 64.185,154.847 63.600,154.712 63.600 C 154.578 63.600,153.733 64.435,152.834 65.456 M203.241 67.807 C 203.593 68.243,204.300 69.363,204.812 70.296 C 205.324 71.228,205.816 71.917,205.906 71.827 C 206.158 71.575,204.053 68.137,203.282 67.541 C 202.648 67.051,202.645 67.069,203.241 67.807 M146.586 76.027 C 146.237 76.702,146.007 77.414,146.076 77.609 C 146.144 77.804,146.502 77.251,146.870 76.382 C 147.665 74.506,147.487 74.284,146.586 76.027 M209.082 82.800 C 209.208 84.230,209.377 85.475,209.456 85.567 C 209.761 85.920,209.526 81.758,209.198 81.000 C 208.984 80.505,208.940 81.190,209.082 82.800 M145.293 82.000 C 145.293 82.770,145.375 83.085,145.476 82.700 C 145.576 82.315,145.576 81.685,145.476 81.300 C 145.375 80.915,145.293 81.230,145.293 82.000 M104.900 81.896 C 106.165 81.975,108.235 81.975,109.500 81.896 C 110.765 81.816,109.730 81.751,107.200 81.751 C 104.670 81.751,103.635 81.816,104.900 81.896 M98.889 82.665 C 98.168 83.020,97.668 83.402,97.779 83.512 C 97.890 83.623,98.210 83.525,98.490 83.293 C 98.771 83.062,99.630 82.692,100.400 82.472 C 101.195 82.245,101.454 82.060,101.000 82.045 C 100.560 82.030,99.610 82.309,98.889 82.665 M144.855 87.800 C 144.850 90.220,144.984 92.920,145.153 93.800 C 145.330 94.723,145.392 93.030,145.298 89.800 C 145.099 82.920,144.866 81.869,144.855 87.800 M120.800 84.982 C 120.800 85.090,121.354 85.466,122.031 85.816 C 124.277 86.977,126.965 89.184,129.942 92.311 C 131.560 94.010,132.738 95.130,132.559 94.800 C 131.984 93.739,127.052 88.765,125.400 87.580 C 123.528 86.238,120.800 84.697,120.800 84.982 M87.734 88.329 C 84.022 91.270,75.593 100.755,72.932 104.985 C 72.235 106.093,71.324 107.450,70.909 108.000 C 69.887 109.354,67.918 112.800,68.166 112.800 C 68.276 112.800,68.858 111.945,69.459 110.900 C 70.059 109.855,70.922 108.520,71.375 107.932 C 71.829 107.345,72.650 106.100,73.200 105.165 C 74.989 102.125,84.073 91.680,86.757 89.577 C 88.997 87.822,91.059 86.018,90.800 86.041 C 90.690 86.050,89.310 87.080,87.734 88.329 M209.720 88.000 C 209.720 89.210,209.795 89.705,209.887 89.100 C 209.978 88.495,209.978 87.505,209.887 86.900 C 209.795 86.295,209.720 86.790,209.720 88.000 M340.510 88.891 C 339.901 89.659,339.144 91.200,339.376 91.200 C 339.488 91.200,339.866 90.645,340.217 89.968 C 340.567 89.290,341.067 88.815,341.327 88.913 C 342.633 89.403,343.767 89.618,343.200 89.267 C 342.018 88.537,340.913 88.382,340.510 88.891 M209.272 91.650 C 209.232 92.448,209.105 93.708,208.989 94.450 C 208.797 95.685,208.815 95.716,209.208 94.815 C 209.444 94.274,209.571 93.014,209.491 92.015 C 209.362 90.418,209.336 90.375,209.272 91.650 M345.300 93.700 C 344.870 94.875,344.880 94.926,345.412 94.224 C 345.921 93.552,346.221 92.400,345.888 92.400 C 345.826 92.400,345.561 92.985,345.300 93.700 M336.865 96.217 C 336.195 97.688,336.323 98.002,337.047 96.665 C 337.386 96.040,337.588 95.454,337.496 95.363 C 337.405 95.271,337.121 95.656,336.865 96.217 M133.942 97.400 C 134.609 98.500,135.831 100.610,136.656 102.089 C 137.481 103.567,138.227 104.706,138.315 104.619 C 138.457 104.477,137.272 102.313,134.627 97.880 C 134.129 97.044,133.497 96.144,133.224 95.880 C 132.951 95.616,133.274 96.300,133.942 97.400 M146.032 98.424 C 146.014 98.766,146.280 99.396,146.622 99.824 C 147.234 100.588,147.238 100.587,146.876 99.800 C 146.674 99.360,146.408 98.730,146.286 98.400 C 146.093 97.882,146.059 97.885,146.032 98.424 M334.555 101.812 C 334.190 102.369,333.964 102.898,334.053 102.987 C 334.142 103.076,334.518 102.620,334.889 101.974 C 335.714 100.536,335.469 100.417,334.555 101.812 M341.304 103.484 C 341.031 104.066,340.882 104.615,340.972 104.705 C 341.212 104.946,342.073 103.218,341.926 102.791 C 341.857 102.590,341.577 102.902,341.304 103.484 M148.000 103.150 C 148.000 103.926,150.357 107.840,151.307 108.641 L 152.200 109.394 151.344 108.397 C 150.873 107.849,149.928 106.340,149.244 105.044 C 148.560 103.748,148.000 102.895,148.000 103.150 M205.305 104.795 C 203.207 109.157,198.219 114.323,193.704 116.809 C 192.772 117.322,192.083 117.816,192.173 117.906 C 192.430 118.164,196.090 115.955,197.200 114.873 C 197.750 114.336,198.793 113.443,199.518 112.888 C 201.681 111.230,206.691 104.163,206.335 103.272 C 206.261 103.086,205.797 103.771,205.305 104.795 M332.672 106.619 C 332.302 107.393,332.004 108.246,332.009 108.514 C 332.014 108.781,332.377 108.208,332.816 107.240 C 333.767 105.144,333.639 104.591,332.672 106.619 M140.009 107.335 C 140.001 107.642,141.399 110.156,143.826 114.200 C 144.355 115.080,144.790 115.606,144.793 115.369 C 144.797 115.131,144.287 114.141,143.661 113.169 C 143.034 112.196,141.958 110.410,141.270 109.200 C 140.581 107.990,140.014 107.151,140.009 107.335 M331.000 110.934 C 329.812 113.383,329.811 113.600,330.997 111.689 C 331.581 110.747,332.001 109.821,331.930 109.631 C 331.858 109.441,331.440 110.027,331.000 110.934 M152.861 110.660 C 153.837 111.866,156.801 114.636,156.799 114.341 C 156.799 114.264,155.683 113.120,154.320 111.800 C 152.957 110.480,152.300 109.967,152.861 110.660 M337.072 113.819 C 336.702 114.593,336.404 115.446,336.409 115.714 C 336.414 115.981,336.777 115.408,337.216 114.440 C 338.167 112.344,338.039 111.791,337.072 113.819 M66.891 114.549 C 66.401 115.264,66.000 115.998,66.000 116.181 C 66.000 116.363,66.459 115.835,67.020 115.009 C 67.581 114.182,67.982 113.448,67.911 113.377 C 67.840 113.307,67.381 113.834,66.891 114.549 M158.487 115.700 C 159.106 116.305,159.835 116.795,160.106 116.788 C 160.378 116.781,160.240 116.577,159.800 116.333 C 159.360 116.090,158.631 115.600,158.181 115.245 C 157.730 114.890,157.868 115.095,158.487 115.700 M145.455 117.000 C 146.380 118.579,146.400 118.603,146.400 118.111 C 146.400 117.879,146.029 117.264,145.576 116.744 L 144.753 115.800 145.455 117.000 M64.679 118.774 C 64.306 119.406,64.001 120.076,64.001 120.262 C 64.002 120.448,64.372 119.995,64.823 119.255 C 65.274 118.515,65.579 117.846,65.501 117.767 C 65.422 117.689,65.052 118.142,64.679 118.774 M335.079 118.774 C 334.706 119.406,334.401 120.076,334.401 120.262 C 334.402 120.448,334.772 119.995,335.223 119.255 C 335.674 118.515,335.979 117.846,335.901 117.767 C 335.822 117.689,335.452 118.142,335.079 118.774 M188.845 119.221 C 187.659 119.870,186.939 120.397,187.245 120.393 C 187.550 120.389,188.700 119.852,189.800 119.200 C 192.383 117.668,191.656 117.684,188.845 119.221 M148.808 122.700 C 149.732 124.405,150.866 126.160,151.329 126.600 L 152.170 127.400 151.546 126.600 C 151.202 126.160,150.161 124.405,149.232 122.700 C 148.304 120.995,147.450 119.600,147.336 119.600 C 147.221 119.600,147.884 120.995,148.808 122.700 M62.893 122.406 C 61.646 124.573,61.778 124.984,63.043 122.872 C 63.612 121.922,64.013 121.079,63.933 120.999 C 63.852 120.919,63.385 121.552,62.893 122.406 M171.400 121.180 C 172.161 121.526,175.117 121.764,174.767 121.451 C 174.675 121.369,173.700 121.193,172.600 121.059 C 171.254 120.895,170.861 120.935,171.400 121.180 M181.000 121.200 L 179.400 121.486 181.000 121.515 C 181.880 121.531,182.960 121.389,183.400 121.200 L 184.200 120.856 183.400 120.885 C 182.960 120.901,181.880 121.042,181.000 121.200 M176.100 121.887 C 176.705 121.978,177.695 121.978,178.300 121.887 C 178.905 121.795,178.410 121.720,177.200 121.720 C 175.990 121.720,175.495 121.795,176.100 121.887 M333.300 123.300 C 332.870 124.475,332.880 124.526,333.412 123.824 C 333.921 123.152,334.221 122.000,333.888 122.000 C 333.826 122.000,333.561 122.585,333.300 123.300 M324.672 126.219 C 324.302 126.993,324.004 127.846,324.009 128.114 C 324.014 128.381,324.377 127.808,324.816 126.840 C 325.767 124.744,325.639 124.191,324.672 126.219 M60.865 127.017 C 60.195 128.488,60.323 128.802,61.047 127.465 C 61.386 126.840,61.588 126.254,61.496 126.163 C 61.405 126.071,61.121 126.456,60.865 127.017 M322.893 130.806 C 321.646 132.973,321.778 133.384,323.043 131.272 C 323.612 130.322,324.013 129.479,323.933 129.399 C 323.852 129.319,323.385 129.952,322.893 130.806 M153.838 131.200 C 155.905 134.822,156.787 136.191,156.793 135.787 C 156.797 135.559,156.182 134.389,155.426 133.187 C 153.561 130.219,152.574 128.983,153.838 131.200 M58.679 132.774 C 58.306 133.406,58.000 134.159,58.000 134.446 C 58.000 134.734,58.357 134.268,58.794 133.412 C 59.733 131.571,59.653 131.126,58.679 132.774 M327.317 137.957 C 326.832 138.953,326.485 139.818,326.546 139.879 C 326.746 140.080,328.465 136.792,328.330 136.465 C 328.259 136.290,327.803 136.961,327.317 137.957 M157.455 137.400 C 158.380 138.979,158.400 139.003,158.400 138.511 C 158.400 138.279,158.029 137.664,157.576 137.144 L 156.753 136.200 157.455 137.400 M56.627 138.970 C 56.249 140.173,56.018 141.572,56.115 142.079 C 56.273 142.905,56.297 142.888,56.346 141.914 C 56.375 141.317,56.683 139.995,57.029 138.976 C 57.375 137.958,57.580 137.047,57.486 136.953 C 57.392 136.859,57.006 137.766,56.627 138.970 M325.265 143.017 C 324.595 144.488,324.723 144.802,325.447 143.465 C 325.786 142.840,325.988 142.254,325.896 142.163 C 325.805 142.071,325.521 142.456,325.265 143.017 M161.813 144.911 C 162.345 145.863,163.279 147.082,163.890 147.619 L 165.000 148.597 163.946 147.399 C 163.366 146.739,162.602 145.626,162.249 144.925 C 161.895 144.224,161.435 143.545,161.226 143.416 C 161.017 143.287,161.281 143.960,161.813 144.911 M316.865 145.417 C 316.195 146.888,316.323 147.202,317.047 145.865 C 317.386 145.240,317.588 144.654,317.496 144.563 C 317.405 144.471,317.121 144.856,316.865 145.417 M212.033 148.946 C 212.125 149.026,213.190 149.194,214.400 149.319 C 215.820 149.466,216.246 149.429,215.600 149.213 C 214.609 148.883,211.713 148.665,212.033 148.946 M314.893 150.406 C 313.646 152.573,313.778 152.984,315.043 150.872 C 315.612 149.922,316.013 149.079,315.933 148.999 C 315.852 148.919,315.385 149.552,314.893 150.406 M219.000 150.468 C 219.440 150.712,220.079 151.112,220.420 151.356 C 220.760 151.600,220.615 151.395,220.097 150.900 C 219.579 150.405,218.940 150.005,218.678 150.012 C 218.415 150.019,218.560 150.224,219.000 150.468 M132.235 152.362 C 131.659 152.998,131.605 155.589,131.700 177.835 L 131.806 202.600 131.903 177.749 C 132.003 152.097,132.072 151.032,133.530 152.490 C 133.850 152.810,134.000 152.820,134.000 152.523 C 134.000 151.738,132.890 151.637,132.235 152.362 M321.300 152.900 C 320.870 154.075,320.880 154.126,321.412 153.424 C 321.921 152.752,322.221 151.600,321.888 151.600 C 321.826 151.600,321.561 152.185,321.300 152.900 M53.701 154.200 C 53.705 155.080,53.787 155.393,53.883 154.895 C 53.979 154.398,53.975 153.678,53.875 153.295 C 53.775 152.913,53.696 153.320,53.701 154.200 M136.015 155.800 C 136.017 156.020,136.386 156.650,136.836 157.200 C 137.379 157.864,137.515 157.931,137.240 157.400 C 136.566 156.095,136.012 155.372,136.015 155.800 M53.351 160.800 C 53.351 163.330,53.416 164.365,53.496 163.100 C 53.575 161.835,53.575 159.765,53.496 158.500 C 53.416 157.235,53.351 158.270,53.351 160.800 M311.116 159.913 L 310.432 161.400 311.216 160.456 C 311.647 159.936,312.000 159.261,312.000 158.956 C 312.000 158.133,311.870 158.273,311.116 159.913 M138.000 159.412 C 138.000 159.562,138.450 160.219,139.000 160.873 C 139.550 161.527,140.000 161.939,140.000 161.788 C 140.000 161.638,139.550 160.981,139.000 160.327 C 138.450 159.673,138.000 159.261,138.000 159.412 M226.501 162.600 C 226.505 163.480,226.587 163.793,226.683 163.295 C 226.779 162.798,226.775 162.078,226.675 161.695 C 226.575 161.313,226.496 161.720,226.501 162.600 M317.304 162.684 C 317.031 163.266,316.882 163.815,316.972 163.905 C 317.212 164.146,318.073 162.418,317.926 161.991 C 317.857 161.790,317.577 162.102,317.304 162.684 M308.624 164.613 C 307.955 165.118,303.203 165.200,274.511 165.200 C 235.563 165.200,238.400 164.904,238.400 168.966 C 238.400 171.620,238.913 172.462,240.474 172.368 C 240.763 172.351,240.505 172.156,239.900 171.935 C 238.858 171.555,238.800 171.399,238.800 169.006 C 238.800 165.355,236.220 165.600,274.615 165.600 C 307.137 165.600,307.933 165.582,308.856 164.813 C 309.951 163.901,309.771 163.745,308.624 164.613 M52.964 173.400 C 52.963 177.140,53.023 178.724,53.097 176.920 C 53.171 175.115,53.172 172.055,53.098 170.120 C 53.025 168.184,52.964 169.660,52.964 173.400 M315.100 168.214 C 314.101 169.550,314.231 169.923,315.246 168.633 C 315.711 168.042,316.026 167.495,315.946 167.418 C 315.866 167.341,315.485 167.700,315.100 168.214 M143.834 168.800 C 144.500 170.069,146.487 172.312,147.716 173.183 C 148.789 173.944,148.735 173.840,147.387 172.547 C 146.499 171.696,145.266 170.370,144.646 169.600 C 144.026 168.830,143.661 168.470,143.834 168.800 M313.908 170.709 C 313.780 171.198,313.253 171.767,312.738 171.974 C 312.153 172.208,312.040 172.359,312.438 172.375 C 313.251 172.407,314.536 171.007,314.311 170.333 C 314.214 170.043,314.040 170.206,313.908 170.709 M222.487 172.700 C 221.530 173.635,221.514 173.681,222.381 173.006 C 224.088 171.676,224.169 171.600,223.886 171.600 C 223.736 171.600,223.106 172.095,222.487 172.700 M219.531 174.769 C 218.993 175.191,217.934 175.715,217.177 175.933 C 216.420 176.150,216.103 176.344,216.474 176.364 C 216.845 176.384,217.565 176.228,218.074 176.018 C 219.052 175.615,221.174 174.024,220.754 174.009 C 220.619 174.004,220.068 174.346,219.531 174.769 M170.530 176.700 C 178.851 176.760,192.351 176.760,200.530 176.700 C 208.708 176.639,201.900 176.590,185.400 176.590 C 168.900 176.590,162.208 176.639,170.530 176.700 M53.364 188.200 C 53.363 191.940,53.423 193.524,53.497 191.720 C 53.571 189.915,53.572 186.855,53.498 184.920 C 53.425 182.984,53.364 184.460,53.364 188.200 M53.751 202.400 C 53.751 204.930,53.816 205.965,53.896 204.700 C 53.975 203.435,53.975 201.365,53.896 200.100 C 53.816 198.835,53.751 199.870,53.751 202.400 M132.400 204.568 C 132.400 205.217,134.987 207.998,135.567 207.972 C 136.115 207.948,136.111 207.907,135.533 207.672 C 135.166 207.522,134.311 206.700,133.633 205.845 C 132.955 204.990,132.400 204.415,132.400 204.568 M152.129 208.700 C 159.790 208.761,172.210 208.761,179.729 208.700 C 187.248 208.639,180.980 208.589,165.800 208.589 C 150.620 208.589,144.468 208.639,152.129 208.700 M198.800 211.000 C 199.545 211.550,200.255 211.999,200.378 211.998 C 200.755 211.995,198.224 210.030,197.822 210.014 C 197.615 210.006,198.055 210.450,198.800 211.000 M54.128 212.800 C 54.128 214.230,54.201 214.815,54.289 214.100 C 54.378 213.385,54.378 212.215,54.289 211.500 C 54.201 210.785,54.128 211.370,54.128 212.800 M202.200 213.600 C 203.059 214.480,203.852 215.200,203.962 215.200 C 204.072 215.200,203.459 214.480,202.600 213.600 C 201.741 212.720,200.948 212.000,200.838 212.000 C 200.728 212.000,201.341 212.720,202.200 213.600 M54.481 217.400 C 54.470 218.280,54.714 219.720,55.022 220.600 C 55.402 221.686,55.507 221.815,55.347 221.000 C 55.217 220.340,54.973 218.900,54.805 217.800 C 54.510 215.866,54.499 215.853,54.481 217.400 M205.124 218.200 C 205.326 218.640,205.592 219.270,205.714 219.600 C 205.907 220.118,205.941 220.115,205.968 219.576 C 205.986 219.234,205.720 218.604,205.378 218.176 C 204.766 217.412,204.762 217.413,205.124 218.200 M206.114 222.200 C 206.117 223.300,206.195 223.703,206.287 223.095 C 206.379 222.486,206.377 221.586,206.282 221.095 C 206.187 220.603,206.111 221.100,206.114 222.200 M58.000 231.012 C 58.000 231.162,58.450 231.819,59.000 232.473 C 59.550 233.127,60.000 233.539,60.000 233.388 C 60.000 233.238,59.550 232.581,59.000 231.927 C 58.450 231.273,58.000 230.861,58.000 231.012 M60.000 234.281 C 60.000 234.495,60.945 235.656,62.100 236.861 C 63.255 238.066,63.645 238.410,62.966 237.626 C 62.288 236.842,61.343 235.681,60.866 235.046 C 60.390 234.411,60.000 234.067,60.000 234.281 M65.200 240.372 C 66.766 241.688,70.000 244.017,70.000 243.828 C 70.000 243.624,65.660 240.303,64.800 239.848 C 64.470 239.673,64.650 239.909,65.200 240.372 M78.176 247.378 C 78.604 247.720,79.234 247.986,79.576 247.968 C 80.115 247.941,80.118 247.907,79.600 247.714 C 79.270 247.592,78.640 247.326,78.200 247.124 C 77.413 246.762,77.412 246.766,78.176 247.378 M102.300 248.300 C 114.235 248.359,133.765 248.359,145.700 248.300 C 157.635 248.241,147.870 248.193,124.000 248.193 C 100.130 248.193,90.365 248.241,102.300 248.300 M168.300 248.812 L 169.200 249.174 169.298 287.887 L 169.396 326.600 169.500 288.043 C 169.607 248.308,169.609 248.365,168.051 248.425 C 167.610 248.443,167.691 248.568,168.300 248.812 M206.114 329.400 C 206.117 330.500,206.195 330.903,206.287 330.295 C 206.379 329.686,206.377 328.786,206.282 328.295 C 206.187 327.803,206.111 328.300,206.114 329.400 M169.701 329.400 C 169.705 330.280,169.787 330.593,169.883 330.095 C 169.979 329.598,169.975 328.878,169.875 328.495 C 169.775 328.113,169.696 328.520,169.701 329.400 M170.025 332.056 C 170.011 332.416,170.315 333.055,170.700 333.475 C 171.085 333.894,171.272 334.040,171.116 333.797 C 170.960 333.555,170.656 332.917,170.441 332.378 C 170.194 331.760,170.041 331.641,170.025 332.056 M172.000 335.865 C 172.000 336.306,174.367 339.600,174.684 339.600 C 174.801 339.600,174.716 339.375,174.495 339.100 C 174.273 338.825,173.621 337.900,173.046 337.044 C 172.471 336.188,172.000 335.658,172.000 335.865 M204.000 335.919 C 204.000 336.168,203.422 337.053,202.715 337.886 C 201.563 339.243,201.546 339.296,202.551 338.400 C 203.817 337.272,204.580 336.046,204.232 335.699 C 204.105 335.571,204.000 335.670,204.000 335.919 M200.162 340.443 C 199.464 341.214,198.833 341.617,195.066 343.699 C 194.370 344.084,194.047 344.399,194.348 344.399 C 194.650 344.400,195.694 343.905,196.669 343.300 C 198.900 341.916,201.798 339.600,201.300 339.600 C 201.093 339.600,200.581 339.979,200.162 340.443 M186.261 345.259 C 187.285 345.489,188.666 345.489,189.861 345.261 C 191.661 344.916,191.542 344.889,188.200 344.888 C 185.056 344.886,184.810 344.933,186.261 345.259 " stroke="none" fill="#8c8c92" fill-rule="evenodd"></path><path id="path3" d="M174.000 54.689 C 164.043 56.484,157.792 60.055,151.369 67.621 C 145.299 74.771,143.254 91.111,147.242 100.600 C 153.651 115.851,167.348 123.592,183.052 120.837 C 213.976 115.413,219.250 70.619,190.499 57.583 C 188.130 56.509,186.688 56.101,180.600 54.782 C 178.939 54.422,175.734 54.377,174.000 54.689 M183.600 56.195 C 185.910 56.594,188.070 57.145,188.400 57.421 C 188.730 57.696,189.762 58.146,190.694 58.422 C 191.625 58.697,192.688 59.255,193.056 59.661 C 193.423 60.068,193.951 60.400,194.228 60.400 C 196.289 60.400,202.740 67.647,205.277 72.812 C 208.781 79.945,209.693 95.929,206.830 100.000 C 206.443 100.550,205.892 101.720,205.605 102.600 C 205.318 103.480,204.750 104.629,204.342 105.154 C 203.934 105.679,203.600 106.351,203.600 106.648 C 203.600 107.465,195.899 115.057,194.352 115.765 C 193.608 116.105,192.730 116.563,192.400 116.782 C 192.070 117.001,191.170 117.461,190.400 117.805 C 189.630 118.148,188.545 118.683,187.990 118.993 C 184.996 120.666,168.496 120.645,166.354 118.966 C 165.613 118.385,160.026 115.600,159.601 115.600 C 159.417 115.600,157.713 114.025,155.816 112.100 C 151.150 107.367,150.800 106.978,150.800 106.514 C 150.800 106.293,150.359 105.462,149.820 104.668 C 149.282 103.874,148.721 102.588,148.575 101.809 C 148.429 101.030,147.947 99.933,147.505 99.370 C 145.648 97.009,145.648 78.991,147.505 76.630 C 147.947 76.067,148.435 74.939,148.588 74.123 C 148.741 73.307,149.094 72.451,149.371 72.220 C 149.649 71.989,150.117 71.189,150.410 70.443 C 150.704 69.696,151.284 68.706,151.699 68.243 C 154.628 64.973,157.204 62.400,157.548 62.400 C 157.772 62.400,158.190 62.066,158.477 61.657 C 158.765 61.249,159.411 60.785,159.913 60.626 C 160.415 60.468,161.296 59.902,161.871 59.369 C 162.446 58.836,163.259 58.400,163.678 58.400 C 164.097 58.400,165.016 58.085,165.720 57.700 C 169.494 55.636,176.806 55.021,183.600 56.195 M100.400 82.472 C 99.630 82.692,98.820 83.014,98.600 83.188 C 98.380 83.361,97.207 83.788,95.993 84.136 C 92.846 85.038,89.962 86.763,86.168 90.016 C 83.461 92.336,75.308 101.844,73.332 104.985 C 72.635 106.093,71.724 107.450,71.309 108.000 C 70.894 108.550,70.027 109.900,69.382 111.000 C 68.738 112.100,67.993 113.360,67.728 113.800 C 65.372 117.710,60.000 129.344,60.000 130.536 C 60.000 130.798,59.651 131.662,59.225 132.458 C 58.307 134.171,57.335 137.461,56.525 141.600 C 56.202 143.250,55.594 145.687,55.173 147.015 C 52.773 154.598,52.813 211.816,55.224 220.058 C 55.440 220.796,55.775 222.496,55.969 223.836 C 56.163 225.175,56.699 227.101,57.161 228.114 C 57.622 229.127,58.000 230.132,58.000 230.347 C 58.000 230.563,58.412 231.247,58.916 231.869 C 59.419 232.491,60.029 233.450,60.270 234.000 C 61.950 237.827,72.106 245.956,75.275 246.009 C 75.564 246.014,76.610 246.419,77.600 246.909 L 79.400 247.800 123.839 248.000 C 160.161 248.163,168.395 248.298,168.923 248.736 C 169.508 249.221,169.579 253.113,169.684 290.162 L 169.800 331.052 171.357 334.026 C 172.970 337.106,174.641 339.573,175.478 340.109 C 175.743 340.279,176.206 340.663,176.505 340.962 C 176.805 341.262,177.792 341.886,178.698 342.348 C 179.604 342.810,180.443 343.345,180.561 343.537 C 181.421 344.928,192.040 345.161,194.800 343.849 C 201.640 340.597,205.277 335.847,206.038 329.172 C 206.278 327.061,206.384 305.555,206.314 273.172 L 206.200 220.600 205.031 218.000 C 203.126 213.760,199.981 210.999,195.432 209.573 C 193.142 208.855,191.437 208.810,166.167 208.805 C 133.089 208.799,133.569 208.875,132.041 203.371 C 131.157 200.190,131.455 153.055,132.364 152.233 C 133.355 151.336,134.865 152.881,137.037 157.015 C 137.841 158.547,138.733 160.070,139.017 160.400 C 139.302 160.730,140.189 162.236,140.989 163.746 C 143.896 169.236,146.879 172.634,150.795 174.915 L 153.000 176.200 184.000 176.317 C 204.653 176.395,215.562 176.294,216.685 176.015 C 226.519 173.570,229.835 159.761,222.230 152.923 C 217.763 148.907,216.876 148.800,188.026 148.800 L 164.957 148.800 163.716 147.500 C 163.033 146.785,161.813 144.940,161.005 143.400 C 160.196 141.860,159.305 140.330,159.023 140.000 C 158.742 139.670,157.827 138.140,156.991 136.600 C 156.155 135.060,155.249 133.530,154.977 133.200 C 154.705 132.870,153.819 131.340,153.009 129.800 C 152.198 128.260,151.302 126.730,151.017 126.400 C 150.733 126.070,149.741 124.450,148.814 122.800 C 147.887 121.150,146.168 118.180,144.993 116.200 C 141.076 109.594,140.000 107.673,140.000 107.284 C 140.000 107.072,139.725 106.670,139.390 106.391 C 139.054 106.113,137.963 104.426,136.965 102.642 C 133.874 97.116,132.789 95.494,130.305 92.693 C 126.822 88.764,122.296 85.460,118.967 84.414 C 118.105 84.144,116.289 83.490,114.932 82.961 C 112.226 81.908,103.414 81.611,100.400 82.472 M114.400 83.503 C 115.170 83.955,116.555 84.445,117.477 84.593 C 118.399 84.741,119.359 85.109,119.609 85.411 C 119.859 85.712,120.725 86.168,121.532 86.424 C 122.339 86.679,123.180 87.093,123.400 87.344 C 123.620 87.595,124.611 88.430,125.602 89.200 C 127.763 90.879,131.773 95.121,132.124 96.100 C 132.262 96.485,132.541 96.800,132.744 96.800 C 132.947 96.800,133.223 97.236,133.357 97.769 C 133.490 98.302,134.006 99.247,134.503 99.869 C 135.000 100.491,136.035 102.213,136.803 103.697 C 137.572 105.180,138.341 106.395,138.514 106.397 C 138.687 106.398,139.193 107.165,139.639 108.100 C 140.635 110.190,141.634 111.988,142.624 113.472 C 143.612 114.954,144.579 116.676,145.381 118.385 C 145.738 119.147,146.302 120.070,146.633 120.436 C 147.290 121.163,148.871 123.956,149.611 125.700 C 149.868 126.305,150.236 126.800,150.428 126.800 C 150.620 126.800,151.165 127.700,151.638 128.800 C 152.111 129.900,152.637 130.800,152.806 130.800 C 152.975 130.800,153.219 131.221,153.348 131.735 C 153.477 132.249,153.944 133.129,154.385 133.690 C 154.827 134.252,155.835 135.946,156.626 137.455 C 157.417 138.965,158.275 140.384,158.532 140.608 C 158.790 140.833,159.630 142.269,160.400 143.800 C 161.170 145.331,162.498 147.352,163.351 148.292 L 164.902 150.000 189.151 150.008 C 214.808 150.016,218.118 150.199,219.727 151.695 C 220.262 152.193,221.308 153.127,222.050 153.770 C 223.325 154.875,224.163 156.101,225.214 158.400 C 226.532 161.285,224.805 170.377,222.694 171.661 C 222.422 171.826,221.840 172.247,221.400 172.596 C 220.960 172.946,219.790 173.761,218.800 174.408 L 217.000 175.585 185.073 175.593 L 153.147 175.600 151.873 174.646 C 151.173 174.122,150.212 173.575,149.737 173.431 C 149.262 173.287,148.773 172.906,148.650 172.585 C 148.526 172.263,148.154 172.000,147.822 172.000 C 147.490 172.000,146.904 171.505,146.519 170.900 C 146.134 170.295,145.590 169.656,145.310 169.480 C 145.029 169.304,144.800 168.924,144.800 168.635 C 144.800 168.346,144.260 167.431,143.600 166.600 C 142.940 165.769,142.400 164.845,142.400 164.545 C 142.400 164.245,142.085 163.679,141.700 163.288 C 141.315 162.896,140.688 161.906,140.306 161.088 C 139.925 160.269,139.444 159.600,139.238 159.600 C 139.032 159.600,138.750 159.084,138.612 158.454 C 138.473 157.824,138.016 156.939,137.596 156.488 C 137.176 156.037,136.727 155.248,136.597 154.734 C 136.155 152.976,133.408 150.661,132.403 151.198 C 130.438 152.250,130.400 152.743,130.400 177.192 C 130.400 213.082,126.570 209.702,167.600 210.026 C 194.465 210.237,198.000 210.378,198.000 211.236 C 198.000 211.425,198.562 211.870,199.249 212.225 C 200.433 212.837,203.200 215.331,203.200 215.786 C 203.200 215.902,203.740 217.141,204.400 218.538 L 205.600 221.077 205.600 275.812 C 205.600 328.423,205.571 330.611,204.852 332.174 C 204.441 333.068,203.883 334.376,203.612 335.079 C 203.027 336.602,199.966 339.885,197.769 341.347 C 196.906 341.921,195.760 342.708,195.223 343.096 C 194.393 343.694,193.336 343.800,188.223 343.800 C 181.608 343.800,181.465 343.756,176.933 340.300 C 176.139 339.695,175.335 339.200,175.145 339.200 C 174.955 339.200,174.800 338.955,174.800 338.655 C 174.800 338.355,174.260 337.431,173.600 336.600 C 172.940 335.769,172.400 334.869,172.400 334.599 C 172.400 334.329,171.995 333.593,171.500 332.964 L 170.600 331.820 170.400 290.222 L 170.200 248.623 169.200 248.118 C 168.412 247.719,158.939 247.610,124.600 247.602 L 81.000 247.593 79.000 246.609 C 77.900 246.068,76.613 245.619,76.141 245.613 C 75.206 245.599,71.207 243.653,69.600 242.431 C 69.050 242.013,67.900 241.115,67.045 240.435 C 66.190 239.756,65.364 239.200,65.209 239.200 C 65.055 239.200,64.723 238.750,64.473 238.200 C 64.222 237.650,63.743 237.200,63.409 237.200 C 63.074 237.200,62.800 237.016,62.800 236.790 C 62.800 236.345,60.361 232.572,59.445 231.600 C 59.134 231.270,58.665 230.190,58.403 229.200 C 58.140 228.210,57.692 227.130,57.406 226.800 C 57.120 226.470,56.588 223.828,56.223 220.928 C 55.859 218.029,55.372 215.059,55.142 214.328 C 53.940 210.510,54.112 151.607,55.332 149.301 C 55.710 148.587,56.222 146.517,56.470 144.701 C 56.719 142.886,57.150 140.942,57.428 140.383 C 57.707 139.824,58.144 138.214,58.399 136.806 C 58.654 135.398,59.200 133.818,59.611 133.295 C 60.023 132.772,60.479 131.546,60.625 130.572 C 60.771 129.597,61.045 128.800,61.234 128.800 C 61.423 128.800,61.874 127.765,62.235 126.500 C 62.597 125.235,63.140 123.918,63.442 123.574 C 63.743 123.230,64.201 122.330,64.459 121.574 C 64.717 120.818,65.259 119.771,65.664 119.246 C 66.069 118.721,66.400 117.970,66.400 117.577 C 66.400 117.183,66.850 116.327,67.400 115.673 C 67.950 115.019,68.403 114.330,68.407 114.142 C 68.411 113.954,68.951 113.008,69.607 112.040 C 70.263 111.072,70.800 109.947,70.800 109.540 C 70.800 109.133,71.070 108.800,71.400 108.800 C 71.730 108.800,72.000 108.640,72.000 108.445 C 72.000 108.250,72.630 107.174,73.400 106.055 C 74.170 104.935,74.800 103.856,74.800 103.656 C 74.800 103.456,75.250 102.997,75.800 102.637 C 76.350 102.276,76.800 101.759,76.800 101.487 C 76.800 101.215,77.160 100.768,77.600 100.493 C 78.040 100.218,78.400 99.797,78.400 99.557 C 78.400 99.317,78.895 98.644,79.500 98.060 C 80.105 97.477,81.770 95.679,83.200 94.065 C 86.260 90.612,90.683 86.932,92.508 86.320 C 93.218 86.082,94.070 85.662,94.400 85.388 C 94.730 85.114,95.983 84.684,97.184 84.431 C 98.385 84.179,99.645 83.724,99.984 83.420 C 101.450 82.104,112.120 82.166,114.400 83.503 M339.670 90.811 C 338.971 91.934,338.400 92.940,338.400 93.047 C 338.400 93.435,335.903 99.855,334.995 101.800 C 334.482 102.900,333.580 105.150,332.991 106.800 C 332.403 108.450,331.494 110.700,330.972 111.800 C 330.451 112.900,329.563 115.060,328.999 116.600 C 328.436 118.140,327.544 120.300,327.018 121.400 C 326.492 122.500,325.583 124.750,324.997 126.400 C 324.411 128.050,323.497 130.237,322.966 131.259 C 322.435 132.281,321.999 133.361,321.998 133.659 C 321.996 133.957,321.747 134.675,321.445 135.255 C 321.142 135.835,320.580 137.275,320.196 138.455 C 319.812 139.635,319.275 140.870,319.004 141.200 C 318.733 141.530,318.194 142.700,317.807 143.800 C 317.420 144.900,316.788 146.702,316.403 147.805 C 316.018 148.908,315.321 150.438,314.853 151.205 C 314.386 151.972,314.001 152.870,313.999 153.200 C 313.997 153.530,313.728 154.312,313.402 154.937 C 313.076 155.562,312.538 156.987,312.206 158.104 C 311.875 159.220,311.356 160.418,311.052 160.767 C 310.749 161.115,310.285 162.074,310.020 162.899 C 309.094 165.782,311.487 165.600,274.571 165.600 C 236.231 165.600,238.800 165.356,238.800 169.000 C 238.800 172.652,236.010 172.401,276.560 172.394 C 314.690 172.388,313.397 172.463,314.121 170.200 C 314.332 169.540,314.752 168.715,315.054 168.367 C 315.356 168.018,315.891 166.758,316.243 165.567 C 316.594 164.375,317.019 163.220,317.188 163.000 C 317.356 162.780,317.802 161.657,318.178 160.505 C 318.554 159.352,319.023 158.310,319.220 158.188 C 319.418 158.065,319.845 157.118,320.170 156.083 C 321.088 153.157,322.815 148.664,323.200 148.200 C 323.565 147.761,325.365 143.135,326.048 140.883 C 326.267 140.159,326.777 138.989,327.180 138.283 C 327.582 137.577,328.132 136.308,328.400 135.461 C 328.668 134.615,329.137 133.445,329.441 132.861 C 329.746 132.278,329.996 131.557,329.998 131.259 C 329.999 130.961,330.435 129.881,330.966 128.859 C 331.497 127.837,332.422 125.650,333.021 124.000 C 333.620 122.350,334.531 120.100,335.045 119.000 C 335.559 117.900,336.235 116.280,336.548 115.400 C 337.803 111.865,338.776 109.511,339.183 109.020 C 339.419 108.736,339.882 107.596,340.211 106.489 C 340.540 105.381,341.076 103.962,341.402 103.337 C 341.728 102.712,341.997 101.930,341.999 101.600 C 342.001 101.270,342.386 100.372,342.853 99.605 C 343.611 98.363,344.160 96.989,345.686 92.516 C 346.238 90.900,345.800 90.306,343.563 89.636 C 342.658 89.365,341.697 89.059,341.428 88.955 C 341.158 88.852,340.373 89.679,339.670 90.811 M344.500 90.648 C 345.415 90.917,345.385 91.868,344.400 93.800 C 343.960 94.663,343.600 95.757,343.600 96.231 C 343.600 96.704,343.257 97.528,342.839 98.060 C 342.420 98.593,341.884 99.742,341.648 100.614 C 341.413 101.486,340.855 102.913,340.410 103.785 C 339.964 104.656,339.600 105.746,339.600 106.207 C 339.600 106.668,339.150 107.655,338.600 108.400 C 338.050 109.145,337.600 110.042,337.600 110.393 C 337.600 110.744,337.250 111.716,336.823 112.554 C 336.396 113.392,335.924 114.646,335.775 115.339 C 335.625 116.033,335.075 117.336,334.552 118.235 C 334.028 119.134,333.594 120.124,333.587 120.435 C 333.581 120.746,333.132 121.900,332.591 123.000 C 332.050 124.100,331.600 125.360,331.591 125.800 C 331.582 126.240,331.132 127.320,330.590 128.200 C 330.048 129.080,329.598 130.070,329.590 130.400 C 329.582 130.730,329.132 131.900,328.591 133.000 C 328.050 134.100,327.606 135.370,327.604 135.822 C 327.602 136.275,327.150 137.255,326.600 138.000 C 326.050 138.745,325.600 139.642,325.600 139.993 C 325.600 140.344,325.236 141.344,324.790 142.215 C 324.345 143.087,323.873 144.470,323.741 145.289 C 323.609 146.108,323.073 147.358,322.551 148.067 C 322.028 148.776,321.600 149.638,321.600 149.984 C 321.600 150.329,321.264 151.239,320.853 152.006 C 320.443 152.773,319.971 154.030,319.805 154.800 C 319.639 155.570,319.075 156.936,318.552 157.835 C 318.028 158.734,317.594 159.724,317.587 160.035 C 317.581 160.346,317.132 161.500,316.591 162.600 C 316.050 163.700,315.606 164.970,315.604 165.422 C 315.602 165.875,315.150 166.855,314.600 167.600 C 314.050 168.345,313.600 169.334,313.600 169.798 C 313.600 171.650,314.614 171.600,276.753 171.600 C 236.304 171.600,239.600 171.830,239.600 169.004 C 239.600 166.191,236.607 166.412,274.846 166.405 C 311.928 166.399,310.400 166.509,310.400 163.849 C 310.400 163.357,310.832 162.370,311.360 161.654 C 311.888 160.939,312.443 159.689,312.594 158.877 C 312.744 158.065,313.112 157.127,313.411 156.794 C 313.710 156.460,314.151 155.310,314.391 154.239 C 314.631 153.167,315.182 151.841,315.614 151.291 C 316.046 150.742,316.400 149.999,316.400 149.640 C 316.400 149.282,316.788 148.271,317.263 147.394 C 317.738 146.517,318.271 145.042,318.448 144.115 C 318.625 143.188,319.118 142.082,319.543 141.657 C 319.968 141.232,320.438 140.156,320.589 139.265 C 320.739 138.375,321.103 137.447,321.396 137.203 C 321.690 136.960,322.152 135.824,322.423 134.680 C 322.694 133.536,323.238 132.187,323.631 131.681 C 324.023 131.176,324.466 130.209,324.615 129.532 C 324.764 128.855,325.206 127.738,325.598 127.051 C 325.991 126.363,326.436 125.080,326.588 124.200 C 326.740 123.320,327.191 122.240,327.589 121.800 C 327.988 121.360,328.442 120.393,328.599 119.651 C 328.757 118.908,329.209 117.738,329.604 117.051 C 329.999 116.363,330.453 115.170,330.613 114.400 C 330.773 113.630,331.236 112.577,331.642 112.059 C 332.047 111.542,332.497 110.462,332.640 109.659 C 332.784 108.857,333.135 107.930,333.421 107.600 C 333.706 107.270,334.162 106.100,334.433 105.000 C 334.705 103.900,335.246 102.587,335.636 102.081 C 336.026 101.576,336.466 100.609,336.615 99.932 C 336.764 99.255,337.209 98.138,337.605 97.451 C 338.000 96.763,338.447 95.435,338.597 94.500 C 338.747 93.565,339.037 92.800,339.242 92.800 C 339.446 92.800,339.919 92.157,340.294 91.372 C 341.001 89.889,341.578 89.790,344.500 90.648 " stroke="none" fill="#949494" fill-rule="evenodd"></path><path id="path4" d="M170.167 54.340 C 169.489 54.761,168.008 55.234,166.875 55.390 C 165.742 55.546,164.407 55.989,163.908 56.376 C 163.408 56.762,162.536 57.191,161.969 57.329 C 161.402 57.468,160.447 58.035,159.848 58.590 C 159.249 59.146,158.534 59.600,158.259 59.600 C 157.500 59.600,151.200 65.756,151.200 66.497 C 151.200 66.854,150.849 67.257,150.420 67.394 C 149.992 67.530,149.521 68.037,149.374 68.520 C 149.228 69.004,148.788 69.760,148.397 70.200 C 148.006 70.640,147.553 71.630,147.391 72.400 C 147.229 73.170,146.768 74.218,146.368 74.728 C 145.968 75.239,145.522 76.499,145.377 77.528 C 145.232 78.558,144.818 79.850,144.457 80.400 C 143.489 81.874,143.489 94.126,144.457 95.600 C 144.818 96.150,145.232 97.442,145.377 98.472 C 145.522 99.501,145.985 100.782,146.406 101.317 C 146.827 101.852,147.347 103.074,147.563 104.034 C 147.779 104.993,148.192 105.963,148.482 106.189 C 148.772 106.415,149.229 107.095,149.496 107.700 C 149.764 108.305,150.257 108.800,150.591 108.800 C 150.926 108.800,151.200 109.141,151.200 109.557 C 151.200 110.373,155.449 114.800,156.233 114.800 C 156.494 114.800,157.003 115.250,157.363 115.800 C 157.724 116.350,158.331 116.800,158.713 116.800 C 159.095 116.800,159.627 117.151,159.895 117.580 C 160.163 118.009,161.054 118.486,161.876 118.641 C 162.697 118.795,163.654 119.272,164.001 119.700 C 164.400 120.193,165.324 120.557,166.516 120.692 C 167.552 120.808,168.400 121.039,168.400 121.203 C 168.400 122.952,183.944 123.212,185.922 121.496 C 186.295 121.173,187.320 120.799,188.200 120.666 C 189.080 120.533,190.077 120.086,190.415 119.673 C 190.754 119.259,191.703 118.795,192.524 118.641 C 193.346 118.486,194.237 118.009,194.505 117.580 C 194.773 117.151,195.270 116.800,195.610 116.800 C 197.036 116.800,204.800 109.139,204.800 107.732 C 204.800 107.459,205.250 106.786,205.800 106.236 C 206.361 105.676,206.800 104.773,206.800 104.182 C 206.800 103.590,207.173 102.826,207.652 102.439 C 208.255 101.950,208.561 101.145,208.702 99.675 C 208.812 98.534,209.037 97.600,209.202 97.600 C 210.809 97.600,211.286 81.396,209.741 79.305 C 209.293 78.697,208.825 77.307,208.702 76.216 C 208.551 74.872,208.208 74.012,207.640 73.552 C 207.171 73.172,206.800 72.406,206.800 71.818 C 206.800 71.227,206.361 70.324,205.800 69.764 C 205.250 69.214,204.800 68.541,204.800 68.268 C 204.800 66.852,198.335 60.499,195.749 59.374 C 195.060 59.075,194.397 58.570,194.276 58.253 C 194.154 57.935,193.457 57.547,192.727 57.391 C 191.997 57.235,191.099 56.790,190.731 56.403 C 190.331 55.982,189.126 55.585,187.731 55.413 C 186.449 55.256,185.067 54.828,184.659 54.463 C 183.451 53.382,171.866 53.283,170.167 54.340 M180.400 54.380 C 186.351 55.476,191.451 57.245,193.873 59.051 C 194.574 59.573,195.254 60.000,195.385 60.000 C 197.329 60.000,204.702 68.468,206.262 72.492 C 206.626 73.432,207.137 74.470,207.396 74.800 C 210.469 78.706,210.330 97.512,207.198 101.494 C 206.759 102.051,206.400 102.783,206.400 103.119 C 206.400 104.567,201.770 111.150,199.518 112.904 C 198.793 113.469,197.647 114.441,196.972 115.065 C 193.727 118.062,185.401 121.219,179.200 121.804 C 175.275 122.173,166.724 120.627,164.942 119.225 C 164.403 118.802,163.443 118.341,162.809 118.202 C 162.174 118.063,161.441 117.690,161.179 117.374 C 160.917 117.058,160.470 116.800,160.187 116.800 C 157.961 116.800,148.000 105.593,148.000 103.088 C 148.000 102.775,147.557 101.685,147.015 100.666 C 144.290 95.541,144.147 80.653,146.775 75.632 C 147.187 74.844,148.070 73.030,148.737 71.600 C 151.133 66.463,158.747 59.028,162.874 57.794 C 163.383 57.641,164.187 57.273,164.659 56.976 C 166.124 56.054,174.580 54.089,177.200 54.062 C 177.970 54.054,179.410 54.197,180.400 54.380 M102.830 81.264 C 99.624 81.486,98.413 81.735,97.592 82.343 C 97.005 82.777,95.677 83.259,94.642 83.415 C 93.607 83.570,92.480 83.977,92.137 84.320 C 91.794 84.663,91.011 85.226,90.397 85.572 C 87.974 86.936,86.069 88.402,83.982 90.513 C 81.308 93.217,77.471 97.549,77.200 98.172 C 76.997 98.638,76.127 99.663,74.500 101.356 C 74.005 101.870,73.600 102.465,73.600 102.676 C 73.600 102.888,73.159 103.475,72.621 103.981 C 72.082 104.486,71.528 105.418,71.389 106.050 C 71.250 106.683,70.980 107.200,70.790 107.200 C 70.336 107.200,67.778 111.111,67.388 112.400 C 67.221 112.950,66.758 113.630,66.359 113.911 C 65.959 114.193,65.517 115.035,65.377 115.784 C 65.236 116.532,64.879 117.238,64.583 117.351 C 64.287 117.465,63.822 118.332,63.550 119.279 C 63.277 120.225,62.743 121.307,62.363 121.682 C 61.983 122.058,61.543 122.951,61.385 123.667 C 61.228 124.383,60.778 125.426,60.386 125.984 C 59.993 126.543,59.553 127.868,59.407 128.929 C 59.261 129.990,58.814 131.186,58.413 131.587 C 58.013 131.987,57.556 133.078,57.398 134.009 C 57.241 134.941,56.790 136.265,56.397 136.951 C 55.983 137.673,55.564 139.527,55.403 141.342 C 55.237 143.205,54.826 144.995,54.392 145.742 C 53.907 146.575,53.562 148.281,53.371 150.792 C 53.212 152.877,52.812 155.217,52.482 155.992 C 51.764 157.676,51.678 189.470,52.377 195.000 C 52.599 196.760,52.960 202.790,53.179 208.400 C 53.649 220.425,53.747 221.452,54.519 222.331 C 54.842 222.699,55.231 224.208,55.383 225.684 C 55.555 227.346,55.944 228.730,56.405 229.316 C 56.815 229.837,57.272 230.749,57.421 231.342 C 57.570 231.936,58.008 232.590,58.393 232.796 C 58.779 233.003,59.203 233.714,59.335 234.376 C 59.475 235.075,60.390 236.382,61.514 237.490 C 62.580 238.541,63.569 239.715,63.713 240.100 C 63.857 240.485,64.154 240.800,64.373 240.800 C 64.592 240.800,65.183 241.171,65.686 241.624 C 68.294 243.974,69.448 244.800,70.125 244.800 C 70.536 244.800,71.172 245.171,71.540 245.625 C 71.960 246.144,72.875 246.534,74.004 246.677 C 75.012 246.804,76.209 247.275,76.732 247.751 L 77.664 248.600 122.587 248.707 L 167.510 248.813 167.847 249.707 C 168.032 250.198,168.293 268.060,168.426 289.400 C 168.679 329.757,168.825 333.176,170.344 334.425 C 170.762 334.769,171.229 335.624,171.383 336.325 C 171.537 337.026,171.967 337.824,172.339 338.100 C 172.710 338.375,173.330 339.095,173.716 339.700 C 174.102 340.305,174.663 340.800,174.963 340.800 C 175.262 340.800,175.599 341.152,175.711 341.582 C 175.824 342.012,176.400 342.485,176.991 342.634 C 177.583 342.782,178.494 343.330,179.015 343.852 C 179.537 344.373,180.438 344.800,181.019 344.800 C 181.599 344.800,182.531 345.160,183.091 345.600 C 184.545 346.744,191.004 346.763,193.146 345.630 C 193.945 345.207,195.100 344.752,195.710 344.620 C 196.321 344.488,197.176 344.024,197.610 343.590 C 198.045 343.155,198.582 342.800,198.804 342.800 C 199.141 342.800,201.019 341.261,202.087 340.109 C 202.245 339.939,202.920 339.209,203.587 338.486 C 204.254 337.764,204.800 336.819,204.800 336.386 C 204.800 335.954,204.959 335.600,205.154 335.600 C 206.826 335.600,206.816 335.985,206.705 275.260 L 206.600 217.664 205.700 216.706 C 205.205 216.180,204.800 215.536,204.800 215.277 C 204.800 214.813,202.367 212.276,200.219 210.499 C 199.619 210.003,198.650 209.493,198.065 209.365 C 196.852 209.101,196.586 208.992,195.200 208.190 C 194.354 207.701,189.857 207.611,165.950 207.606 C 136.007 207.600,135.322 207.570,134.815 206.244 C 134.637 205.780,134.111 205.057,133.646 204.638 C 132.698 203.784,132.259 152.800,133.200 152.800 C 133.420 152.800,133.600 153.060,133.600 153.377 C 133.600 153.695,133.936 154.190,134.346 154.477 C 134.757 154.765,135.217 155.566,135.369 156.259 C 135.521 156.951,135.995 157.834,136.423 158.221 C 136.850 158.607,137.200 159.141,137.200 159.407 C 137.200 159.673,137.740 160.569,138.400 161.400 C 139.060 162.231,139.600 163.217,139.600 163.593 C 139.600 163.969,139.960 164.602,140.400 165.000 C 140.840 165.398,141.200 165.941,141.200 166.207 C 141.200 166.685,142.875 169.071,144.275 170.585 C 144.674 171.016,145.090 171.572,145.200 171.819 C 145.514 172.525,148.253 174.800,148.789 174.800 C 149.054 174.800,149.571 175.169,149.937 175.621 C 150.368 176.153,151.374 176.566,152.801 176.794 C 154.010 176.987,155.814 177.343,156.809 177.586 C 159.537 178.250,214.580 177.981,215.260 177.300 C 215.535 177.025,216.346 176.800,217.061 176.800 C 218.490 176.800,220.400 176.071,220.400 175.526 C 220.400 175.336,220.867 175.002,221.439 174.785 C 222.010 174.568,222.568 174.043,222.679 173.618 C 222.791 173.193,223.266 172.790,223.737 172.722 C 224.207 172.655,224.658 172.253,224.739 171.829 C 224.820 171.405,225.246 170.767,225.686 170.411 C 226.258 169.947,226.592 168.970,226.858 166.981 C 227.063 165.452,227.330 163.546,227.453 162.747 C 227.584 161.889,227.496 161.183,227.238 161.023 C 226.997 160.874,226.800 159.942,226.800 158.950 C 226.800 157.062,226.257 155.621,225.342 155.080 C 225.044 154.904,224.800 154.562,224.800 154.321 C 224.800 153.774,222.188 151.200,221.634 151.200 C 221.411 151.200,221.047 150.861,220.825 150.447 C 220.603 150.032,219.822 149.581,219.088 149.443 C 218.355 149.305,217.052 148.834,216.193 148.396 C 214.683 147.627,213.804 147.600,189.876 147.600 L 165.121 147.600 163.990 146.389 C 163.368 145.723,162.744 144.656,162.604 144.017 C 162.463 143.378,162.080 142.632,161.751 142.359 C 161.423 142.087,160.903 141.264,160.597 140.532 C 160.291 139.799,159.785 139.200,159.472 139.200 C 159.117 139.200,158.806 138.597,158.646 137.600 C 158.493 136.640,158.073 135.802,157.595 135.504 C 157.158 135.231,156.800 134.705,156.800 134.334 C 156.800 133.964,156.362 133.140,155.826 132.504 C 155.290 131.867,154.733 130.871,154.587 130.290 C 154.441 129.708,154.059 129.015,153.738 128.748 C 153.417 128.482,152.902 127.662,152.595 126.926 C 152.288 126.191,151.758 125.482,151.418 125.352 C 151.078 125.221,150.800 124.697,150.800 124.188 C 150.800 123.678,150.350 122.727,149.800 122.073 C 149.250 121.419,148.800 120.677,148.800 120.424 C 148.800 120.171,148.366 119.530,147.836 118.999 C 147.305 118.469,146.749 117.478,146.600 116.798 C 146.450 116.118,145.984 115.347,145.564 115.085 C 145.144 114.822,144.800 114.283,144.800 113.886 C 144.800 113.489,144.373 112.737,143.852 112.215 C 143.330 111.694,142.777 110.757,142.622 110.134 C 142.467 109.510,142.015 108.640,141.616 108.200 C 141.218 107.760,140.769 106.995,140.619 106.500 C 140.469 106.004,139.998 105.413,139.573 105.186 C 139.124 104.945,138.800 104.351,138.800 103.768 C 138.800 103.215,138.350 102.314,137.800 101.764 C 137.250 101.214,136.800 100.431,136.800 100.024 C 136.800 99.617,136.353 98.860,135.807 98.342 C 135.261 97.824,134.811 97.189,134.807 96.931 C 134.803 96.673,134.350 95.927,133.800 95.273 C 133.250 94.619,132.800 93.962,132.800 93.811 C 132.800 93.661,132.253 92.967,131.584 92.269 C 130.915 91.571,129.700 90.306,128.884 89.457 C 128.068 88.609,126.815 87.661,126.100 87.352 C 125.385 87.042,124.800 86.602,124.800 86.374 C 124.800 86.146,124.201 85.709,123.468 85.403 C 122.736 85.097,121.920 84.585,121.655 84.267 C 121.391 83.948,120.332 83.561,119.303 83.406 C 118.274 83.252,117.013 82.796,116.500 82.393 C 115.635 81.713,113.907 81.425,108.600 81.079 C 107.720 81.022,105.124 81.105,102.830 81.264 M115.000 82.685 C 115.880 83.134,117.230 83.637,118.000 83.801 C 122.508 84.762,129.884 90.620,133.363 96.001 C 134.002 96.991,134.848 98.276,135.243 98.857 C 135.638 99.439,136.614 101.149,137.413 102.657 C 138.212 104.166,139.098 105.670,139.383 106.000 C 139.667 106.330,140.688 107.997,141.650 109.704 C 142.613 111.412,143.896 113.662,144.502 114.704 C 145.108 115.747,145.901 117.275,146.263 118.100 C 146.625 118.925,147.065 119.600,147.240 119.600 C 147.415 119.600,148.423 121.134,149.479 123.008 C 151.482 126.561,152.713 128.702,154.400 131.563 C 154.950 132.496,155.896 134.101,156.502 135.130 C 157.108 136.158,157.901 137.675,158.263 138.500 C 158.625 139.325,159.084 140.000,159.283 140.000 C 159.482 140.000,160.008 140.765,160.451 141.700 C 161.549 144.017,162.793 146.021,164.064 147.521 L 165.129 148.777 190.464 148.893 C 220.710 149.031,220.452 148.980,224.929 155.643 C 226.839 158.485,227.165 167.049,225.445 169.200 C 225.181 169.530,224.727 170.279,224.435 170.864 C 223.511 172.715,218.709 175.970,216.225 176.429 C 212.407 177.135,153.645 176.740,152.352 176.000 C 151.776 175.670,150.554 174.988,149.636 174.483 C 146.553 172.790,144.267 170.064,141.000 164.183 C 140.120 162.598,139.160 161.018,138.866 160.669 C 138.352 160.059,137.506 158.567,135.986 155.587 C 134.881 153.421,133.208 151.895,132.543 152.447 C 131.868 153.007,131.728 202.033,132.397 203.791 C 134.184 208.493,133.514 208.400,165.752 208.400 C 192.203 208.400,192.713 208.415,195.433 209.263 C 199.735 210.606,202.929 213.207,204.932 217.000 L 206.200 219.400 206.200 275.800 L 206.200 332.200 204.937 334.800 C 203.741 337.262,200.312 341.184,198.553 342.102 C 198.139 342.318,197.170 342.912,196.400 343.422 C 192.640 345.915,183.682 345.885,179.978 343.366 C 179.197 342.835,178.339 342.400,178.074 342.400 C 177.253 342.400,172.804 337.707,172.157 336.158 C 171.820 335.352,171.198 334.221,170.776 333.646 C 169.394 331.764,169.214 326.443,169.207 287.124 C 169.201 257.268,169.094 249.179,168.700 248.924 C 168.425 248.746,148.212 248.510,123.782 248.400 C 82.729 248.215,79.285 248.148,78.319 247.515 C 77.745 247.138,76.403 246.618,75.337 246.359 C 74.272 246.099,73.130 245.664,72.800 245.391 C 72.470 245.118,71.816 244.778,71.346 244.635 C 68.926 243.899,60.000 235.666,60.000 234.169 C 60.000 233.916,59.597 233.196,59.104 232.569 C 57.793 230.902,56.400 227.394,55.782 224.200 C 55.484 222.660,55.053 220.780,54.826 220.023 C 52.496 212.273,52.497 154.705,54.827 147.400 C 55.249 146.080,55.700 144.100,55.830 143.000 C 56.138 140.406,57.823 134.611,58.820 132.721 C 59.249 131.907,59.600 131.038,59.600 130.789 C 59.600 128.598,66.917 114.017,71.364 107.346 C 71.784 106.716,72.593 105.480,73.160 104.600 C 79.132 95.343,90.573 84.928,96.000 83.810 C 96.770 83.651,97.826 83.251,98.347 82.921 C 100.788 81.373,112.118 81.212,115.000 82.685 M339.052 89.700 C 338.287 90.855,337.528 92.340,337.365 93.000 C 337.202 93.660,336.754 94.650,336.370 95.200 C 335.986 95.750,335.558 97.034,335.418 98.054 C 335.278 99.083,334.834 100.207,334.422 100.580 C 334.013 100.950,333.557 101.906,333.407 102.705 C 333.257 103.504,332.810 104.570,332.413 105.074 C 332.017 105.578,331.573 106.788,331.427 107.763 C 331.280 108.737,330.900 109.751,330.582 110.015 C 330.263 110.280,329.746 111.359,329.433 112.413 C 329.120 113.468,328.599 114.752,328.277 115.266 C 327.954 115.780,327.565 116.920,327.413 117.800 C 327.260 118.680,326.809 119.760,326.411 120.200 C 326.012 120.640,325.553 121.630,325.391 122.400 C 325.229 123.170,324.780 124.203,324.394 124.695 C 324.008 125.188,323.565 126.448,323.409 127.495 C 323.253 128.543,322.791 129.714,322.381 130.098 C 321.972 130.483,321.512 131.473,321.360 132.298 C 321.208 133.124,320.771 134.203,320.388 134.695 C 320.005 135.188,319.569 136.416,319.417 137.424 C 319.266 138.433,318.805 139.595,318.393 140.007 C 317.982 140.418,317.518 141.432,317.363 142.258 C 317.208 143.085,316.762 144.104,316.372 144.522 C 315.983 144.940,315.544 146.149,315.399 147.209 C 315.246 148.319,314.812 149.427,314.375 149.823 C 313.957 150.201,313.496 151.160,313.350 151.955 C 313.204 152.750,312.771 153.803,312.388 154.295 C 312.005 154.788,311.565 156.048,311.409 157.095 C 311.253 158.143,310.784 159.321,310.366 159.713 C 309.947 160.105,309.496 161.111,309.362 161.947 C 308.957 164.482,310.162 164.400,273.126 164.400 C 233.984 164.400,237.600 163.934,237.600 168.980 C 237.600 173.423,233.539 173.000,276.200 173.000 C 316.378 173.000,314.800 173.084,314.800 170.951 C 314.800 170.428,314.975 170.000,315.190 170.000 C 315.743 170.000,316.800 167.821,316.800 166.682 C 316.800 166.155,317.157 165.401,317.594 165.006 C 318.071 164.574,318.489 163.519,318.643 162.361 C 318.789 161.260,319.217 160.147,319.641 159.763 C 320.050 159.393,320.503 158.440,320.648 157.645 C 320.792 156.850,321.240 155.731,321.641 155.158 C 322.043 154.585,322.492 153.325,322.638 152.358 C 322.784 151.391,323.238 150.231,323.646 149.781 C 324.054 149.330,324.511 148.340,324.661 147.581 C 324.811 146.821,325.283 145.724,325.711 145.142 C 326.139 144.560,326.582 143.255,326.696 142.242 C 326.811 141.229,327.056 140.400,327.242 140.400 C 327.738 140.400,328.800 138.182,328.800 137.146 C 328.800 136.654,329.159 135.870,329.597 135.403 C 330.044 134.928,330.513 133.690,330.664 132.587 C 330.825 131.412,331.233 130.375,331.679 130.010 C 332.089 129.675,332.537 128.697,332.675 127.838 C 332.812 126.978,333.244 125.956,333.634 125.566 C 334.023 125.177,334.471 123.990,334.627 122.929 C 334.790 121.829,335.318 120.514,335.856 119.869 C 336.375 119.247,336.800 118.295,336.800 117.753 C 336.800 117.211,337.173 116.263,337.630 115.645 C 338.086 115.028,338.558 113.730,338.679 112.761 C 338.809 111.716,339.207 110.752,339.659 110.390 C 340.078 110.055,340.530 109.065,340.663 108.190 C 340.797 107.316,341.241 106.230,341.650 105.777 C 342.059 105.325,342.514 104.065,342.662 102.977 C 342.825 101.766,343.208 100.802,343.649 100.489 C 344.044 100.207,344.493 99.307,344.647 98.489 C 344.800 97.670,345.291 96.506,345.737 95.901 C 347.176 93.953,347.182 90.150,345.747 89.529 C 345.116 89.255,344.171 88.710,343.646 88.316 C 341.864 86.979,340.603 87.358,339.052 89.700 M344.400 89.749 C 346.335 90.664,346.691 92.176,345.446 94.200 C 345.176 94.640,344.722 95.810,344.438 96.800 C 344.154 97.790,343.686 98.870,343.399 99.200 C 343.113 99.530,342.593 100.768,342.245 101.951 C 341.897 103.135,341.447 104.305,341.245 104.551 C 341.043 104.798,340.663 105.804,340.401 106.786 C 340.138 107.768,339.580 109.007,339.161 109.540 C 338.743 110.072,338.400 110.740,338.400 111.024 C 338.400 111.668,336.255 117.137,334.966 119.779 C 334.434 120.867,334.000 122.042,334.000 122.390 C 334.000 122.737,333.748 123.382,333.439 123.823 C 333.131 124.263,332.664 125.428,332.402 126.412 C 332.140 127.395,331.695 128.470,331.414 128.800 C 331.133 129.130,330.588 130.365,330.204 131.545 C 329.820 132.725,329.258 134.165,328.955 134.745 C 328.653 135.325,328.403 136.070,328.401 136.400 C 328.399 136.730,328.014 137.628,327.547 138.395 C 327.079 139.162,326.381 140.692,325.995 141.795 C 323.894 147.807,323.500 148.800,323.215 148.800 C 323.044 148.800,322.676 149.655,322.398 150.700 C 322.120 151.745,321.681 152.960,321.423 153.400 C 321.165 153.840,320.722 155.010,320.438 156.000 C 320.154 156.990,319.686 158.070,319.399 158.400 C 319.113 158.730,318.593 159.968,318.245 161.151 C 317.897 162.335,317.447 163.505,317.245 163.751 C 317.043 163.998,316.663 165.004,316.401 165.986 C 316.138 166.968,315.580 168.207,315.161 168.740 C 314.743 169.272,314.400 169.984,314.400 170.322 C 314.400 172.506,316.330 172.400,276.512 172.400 C 235.178 172.400,238.400 172.690,238.400 168.966 C 238.400 164.904,235.565 165.200,274.498 165.200 C 309.713 165.200,309.600 165.206,309.600 163.462 C 309.600 163.191,309.974 162.256,310.432 161.385 C 311.208 159.908,311.750 158.541,313.365 154.000 C 313.717 153.010,314.442 151.300,314.976 150.200 C 315.509 149.100,316.517 146.670,317.215 144.800 C 317.913 142.930,318.646 141.201,318.844 140.957 C 319.042 140.713,319.546 139.543,319.964 138.357 C 320.383 137.171,321.013 135.390,321.365 134.400 C 321.717 133.410,322.435 131.700,322.959 130.600 C 323.484 129.500,324.136 127.970,324.407 127.200 C 325.808 123.220,326.300 122.013,326.883 121.123 C 327.234 120.587,327.708 119.530,327.937 118.774 C 328.649 116.415,330.435 111.840,330.828 111.366 C 331.034 111.117,331.563 109.898,332.002 108.657 C 332.441 107.416,333.161 105.378,333.603 104.128 C 334.045 102.878,334.661 101.573,334.972 101.228 C 335.283 100.883,335.669 100.060,335.829 99.400 C 336.209 97.837,338.341 92.482,339.049 91.311 C 341.095 87.928,340.755 88.027,344.400 89.749 " stroke="none" fill="#62646a" fill-rule="evenodd"></path></g></svg>